<?xml version="1.0" standalone="no"?>
<!DOCTYPE svg PUBLIC "-//W3C//DTD SVG 20010904//EN"
 "http://www.w3.org/TR/2001/REC-SVG-20010904/DTD/svg10.dtd">
<svg version="1.0" xmlns="http://www.w3.org/2000/svg"
 width="192.000000pt" height="192.000000pt" viewBox="0 0 192.000000 192.000000"
 preserveAspectRatio="xMidYMid meet">
<metadata>
Created by potrace 1.11, written by Peter Selinger 2001-2013
</metadata>
<g transform="translate(0.000000,192.000000) scale(0.100000,-0.100000)"
fill="#000000" stroke="none">
<path d="M440 1721 c0 -14 -37 -20 -50 -7 -7 7 -13 7 -18 1 -12 -17 -52 -36
-52 -25 0 5 -4 10 -10 10 -5 0 -10 -10 -10 -22 -1 -21 -2 -21 -11 -5 -12 21
-29 22 -29 1 0 -10 -6 -13 -19 -9 -10 3 -24 -1 -31 -10 -7 -8 -19 -15 -26 -15
-8 0 -14 -7 -14 -15 0 -8 -7 -15 -16 -15 -14 0 -15 -2 -3 -17 10 -12 11 -15 1
-9 -8 5 -20 -2 -33 -18 -11 -14 -26 -26 -34 -26 -22 0 -34 -24 -39 -81 -2 -29
-5 -54 -6 -54 -8 0 -6 -71 2 -76 6 -4 7 -13 2 -20 -14 -24 -14 -59 2 -59 22 0
16 -17 -8 -24 -15 -4 -19 -9 -11 -14 6 -4 11 -29 11 -55 0 -26 6 -54 12 -62 6
-8 11 -40 10 -72 -2 -80 -2 -85 11 -77 9 5 10 -3 5 -30 -5 -28 -4 -36 7 -36
10 0 17 -16 22 -47 4 -26 15 -59 25 -73 10 -14 18 -35 17 -45 -1 -11 3 -19 10
-18 7 2 10 -4 7 -12 -4 -8 1 -17 10 -21 9 -3 16 -15 16 -25 0 -21 16 -26 23
-6 3 6 8 -3 12 -20 4 -18 14 -33 21 -33 8 0 14 -7 14 -15 0 -8 -5 -15 -11 -15
-21 0 5 -23 47 -41 23 -11 46 -28 49 -39 4 -11 9 -20 13 -21 36 -4 92 -34 92
-49 0 -12 51 -43 72 -44 10 -1 31 -13 47 -28 32 -30 47 -35 53 -16 3 8 23 1
59 -21 30 -18 48 -27 42 -20 -19 20 -16 31 6 20 21 -12 283 -13 276 -1 -2 3
28 19 66 34 l71 28 32 -36 c18 -19 46 -38 62 -42 16 -4 34 -11 41 -16 6 -5 20
-8 30 -7 24 3 73 -11 73 -21 0 -9 41 -21 80 -25 14 -1 35 -5 47 -9 19 -6 22
-4 16 11 -7 17 -6 17 21 0 21 -14 30 -16 42 -6 7 6 23 9 35 6 11 -3 34 -1 50
5 19 7 34 7 42 0 17 -13 160 0 181 17 21 18 20 28 -8 88 -24 49 -48 69 -67 57
-5 -3 -9 0 -9 6 0 6 -15 17 -33 25 -18 7 -41 23 -52 34 -10 12 -38 27 -62 33
-24 5 -43 14 -43 19 0 5 -11 9 -25 9 -15 0 -40 7 -57 16 -16 9 -55 18 -84 21
-56 6 -70 25 -23 31 56 8 96 140 65 213 -17 41 -9 126 14 154 7 8 15 43 17 78
5 61 4 64 -30 101 -19 22 -39 36 -46 32 -7 -5 -11 1 -11 15 0 21 -1 21 -19 5
-13 -12 -21 -14 -26 -6 -4 6 -15 -2 -29 -22 -18 -27 -28 -32 -52 -30 -16 2
-33 9 -37 15 -6 9 -10 9 -14 -1 -4 -10 -8 -10 -19 -1 -10 8 -20 6 -42 -12 -28
-24 -72 -98 -72 -122 0 -21 -47 -61 -55 -47 -4 7 -17 9 -31 6 -24 -6 -33 7
-14 19 13 8 13 62 0 70 -6 4 -8 15 -5 26 4 12 1 21 -9 25 -9 3 -16 14 -16 24
0 10 -4 20 -8 22 -15 6 -62 75 -62 91 0 10 -7 17 -15 17 -15 0 -17 4 -20 51
-5 62 -17 134 -26 150 -6 11 -6 20 0 24 17 10 3 69 -21 87 -13 10 -30 24 -38
30 -8 7 -19 13 -25 13 -5 0 -9 9 -7 19 3 14 -1 16 -17 11 -13 -4 -21 -2 -21 5
0 7 -8 9 -22 5 -16 -6 -20 -4 -15 8 4 11 -2 17 -24 22 -16 4 -29 11 -29 17 0
6 -7 7 -16 4 -10 -4 -25 1 -35 10 -12 11 -27 14 -44 10 -14 -4 -25 -2 -25 4 0
6 -14 8 -35 4 -22 -3 -35 -1 -35 5 0 6 -4 11 -10 11 -5 0 -10 -4 -10 -9z m162
-67 c29 -9 65 -25 80 -36 16 -11 32 -16 38 -13 5 3 10 -1 10 -10 0 -11 5 -15
15 -11 9 3 15 0 15 -9 0 -8 5 -15 10 -15 6 0 10 -11 10 -24 0 -14 5 -28 10
-31 6 -3 10 -14 10 -23 0 -10 9 -25 20 -35 11 -10 20 -29 20 -45 0 -48 2 -67
13 -79 6 -9 6 -17 0 -25 -6 -7 -10 -20 -10 -28 0 -9 -8 -35 -18 -58 -20 -44
-46 -59 -87 -49 -11 3 -38 -3 -60 -14 -35 -18 -40 -18 -62 -4 -39 26 -100 3
-136 -51 -16 -23 -37 -44 -47 -46 -15 -4 -59 3 -167 27 -11 3 -23 10 -27 17
-6 10 -11 10 -20 1 -9 -9 -19 -3 -45 22 -18 19 -36 30 -39 24 -4 -5 -13 -9
-22 -9 -13 0 -14 2 -2 17 12 15 12 16 -2 11 -13 -5 -16 -2 -12 13 4 15 2 18
-13 12 -16 -6 -17 -4 -7 9 10 12 10 23 1 49 -6 19 -16 37 -22 41 -7 5 -5 8 6
8 13 0 17 10 17 43 2 85 3 89 17 83 10 -4 18 4 24 22 6 15 17 38 24 52 9 15
11 32 7 39 -9 14 24 53 53 64 9 4 16 11 16 17 0 18 114 58 187 65 13 1 25 4
28 7 8 8 110 -9 167 -28z m91 -565 c32 -13 43 -45 32 -97 -4 -20 -7 -54 -7
-76 2 -53 -10 -70 -53 -73 -31 -2 -36 1 -30 15 16 37 27 136 16 140 -6 2 -11
10 -11 18 0 8 -7 14 -15 14 -8 0 -15 7 -15 15 0 18 -38 35 -78 35 l-27 1 22
18 c19 16 30 17 80 9 32 -4 70 -13 86 -19z"/>
<path d="M640 1520 c-11 -11 -20 -31 -20 -45 0 -28 35 -65 62 -65 24 0 47 39
43 73 -7 56 -48 74 -85 37z m48 -38 c2 -7 -3 -12 -12 -12 -9 0 -16 7 -16 16 0
17 22 14 28 -4z"/>
<path d="M232 1514 c-32 -22 -31 -88 3 -110 24 -16 65 -12 65 7 0 5 7 9 16 9
9 0 25 11 36 25 11 14 27 25 36 25 9 0 25 7 34 14 22 17 115 5 152 -19 15 -10
30 -15 33 -11 11 10 -8 23 -60 40 -76 25 -118 21 -176 -18 -49 -34 -51 -34
-51 -12 0 22 -37 66 -56 66 -5 0 -20 -7 -32 -16z m46 -46 c-3 -7 -11 -13 -18
-13 -7 0 -15 6 -17 13 -3 7 4 12 17 12 13 0 20 -5 18 -12z"/>
<path d="M416 1459 l-39 -21 47 -30 c57 -37 68 -69 36 -104 -26 -27 -19 -47 7
-21 16 15 18 15 35 0 22 -19 24 -5 3 23 -23 31 -17 59 20 95 41 40 41 41 16
56 -37 23 -84 24 -125 2z m94 -19 c-20 -13 -47 -13 -55 0 -4 6 9 10 32 10 28
0 34 -3 23 -10z"/>
<path d="M386 416 c3 -9 11 -16 16 -16 13 0 5 23 -10 28 -7 2 -10 -2 -6 -12z"/>
</g>
</svg>
